HIERARCHY
ROOT joint_Root
{
  OFFSET 0 0 0
  CHANNELS 6 Xposition Yposition Zposition Zrotation Xrotation Yrotation
  JOINT Hips
  {
    OFFSET 0.847027 93.984 -452.225
    CHANNELS 6 Xposition Yposition Zposition Zrotation Xrotation Yrotation
    JOINT Spine
    {
      OFFSET 15.7357 0 0
      CHANNELS 6 Xposition Yposition Zposition Zrotation Xrotation Yrotation
      JOINT Chest
      {
        OFFSET 8.98455 -0.406207 0
        CHANNELS 6 Xposition Yposition Zposition Zrotation Xrotation Yrotation
        JOINT Neck
        {
          OFFSET 16.3773 0 0
          CHANNELS 6 Xposition Yposition Zposition Zrotation Xrotation Yrotation
          JOINT Head
          {
            OFFSET 6.45672 0 0
            CHANNELS 6 Xposition Yposition Zposition Zrotation Xrotation Yrotation
            End Site
            {
              OFFSET 0 0 0
            }
          }
        }
        JOINT Shoulder_L
        {
          OFFSET 12.9942 -0.242716 4.98039
          CHANNELS 6 Xposition Yposition Zposition Zrotation Xrotation Yrotation
          JOINT UpperArm_L
          {
            OFFSET 5.34809 0 0
            CHANNELS 6 Xposition Yposition Zposition Zrotation Xrotation Yrotation
            JOINT LowerArm_L
            {
              OFFSET 24.3286 1.87007e-05 0
              CHANNELS 6 Xposition Yposition Zposition Zrotation Xrotation Yrotation
              JOINT Hand_L
              {
                OFFSET 22.2916 0 0
                CHANNELS 6 Xposition Yposition Zposition Zrotation Xrotation Yrotation
                End Site
                {
                  OFFSET 0 0 0
                }
              }
            }
          }
        }
        JOINT Shoulder_R
        {
          OFFSET 12.9945 -0.242716 -4.98039
          CHANNELS 6 Xposition Yposition Zposition Zrotation Xrotation Yrotation
          JOINT UpperArm_R
          {
            OFFSET -5.34813 0 0
            CHANNELS 6 Xposition Yposition Zposition Zrotation Xrotation Yrotation
            JOINT LowerArm_R
            {
              OFFSET -24.3289 0.000322201 0
              CHANNELS 6 Xposition Yposition Zposition Zrotation Xrotation Yrotation
              JOINT Hand_R
              {
                OFFSET -22.2915 -0.000108084 0
                CHANNELS 6 Xposition Yposition Zposition Zrotation Xrotation Yrotation
                End Site
                {
                  OFFSET 0 0 0
                }
              }
            }
          }
        }
      }
    }
    JOINT UpperLeg_L
    {
      OFFSET -2.19248 -6.46944 0
      CHANNELS 6 Xposition Yposition Zposition Zrotation Xrotation Yrotation
      JOINT LowerLeg_L
      {
        OFFSET 39.0811 0 -1.23785e-05
        CHANNELS 6 Xposition Yposition Zposition Zrotation Xrotation Yrotation
        JOINT Foot_L
        {
          OFFSET 40.9854 0 -1.26872e-05
          CHANNELS 6 Xposition Yposition Zposition Zrotation Xrotation Yrotation
          JOINT Toes_L
          {
            OFFSET 11.7543 0 0
            CHANNELS 6 Xposition Yposition Zposition Zrotation Xrotation Yrotation
            End Site
            {
              OFFSET 0 0 0
            }
          }
        }
      }
    }
    JOINT UpperLeg_R
    {
      OFFSET -2.19251 6.46944 0
      CHANNELS 6 Xposition Yposition Zposition Zrotation Xrotation Yrotation
      JOINT LowerLeg_R
      {
        OFFSET -39.0811 -0.00228153 -0.0401928
        CHANNELS 6 Xposition Yposition Zposition Zrotation Xrotation Yrotation
        JOINT Foot_R
        {
          OFFSET -40.9854 0 0
          CHANNELS 6 Xposition Yposition Zposition Zrotation Xrotation Yrotation
          JOINT Toes_R
          {
            OFFSET -11.7543 0 0
            CHANNELS 6 Xposition Yposition Zposition Zrotation Xrotation Yrotation
            End Site
            {
              OFFSET 0 0 0
            }
          }
        }
      }
    }
  }
}
MOTION
Frames:	4
Frame Time:	0.0333333
0 0 0 0 0 -0 -0.41069 91.5813 -19.9191 88.792 -0.462888 -31.3901 15.7357 5.1072e-06 -5.51765e-07 87.9468 74.9985 -88.517 8.98455 -0.406207 -4.3199e-07 22.2153 -1.11705 -0.926119 16.3773 -1.3905e-06 -6.99897e-07 18.115 -5.08738 1.19545 6.45672 -1.25837e-06 -1.02172e-07 0.617931 -4.56997 1.50945 12.9942 -0.242716 4.98039 -90.6914 2.50658 -89.5732 5.34809 -7.22636e-06 -6.2814e-07 -70.5049 43.0965 -3.84755 24.3286 1.87007e-05 4.90208e-06 -13.5676 -1.13676 -85.3004 22.2916 -9.88446e-07 4.63217e-06 14.6611 5.5147 -7.13735 12.9945 -0.242716 -4.98039 88.3109 8.75362 -94.0338 -5.34813 -1.25947e-06 -3.79883e-06 -69.4464 38.0778 5.55593 -24.3289 0.000322201 -8.65921e-06 7.64028 -0.621149 -94.622 -22.2915 -0.000108084 -4.47941e-06 -5.27245 5.41165 -3.31997 -2.19248 -6.46944 -1.22534e-07 -176.47 -3.9169 -51.1707 39.0811 -6.73843e-06 -1.23785e-05 0.0495876 -0.200783 18.2946 40.9854 -6.48686e-06 -1.26872e-05 -1.94126 -2.09261 -48.1691 11.7543 -2.30145e-07 3.05095e-06 0.00156437 -0.00240883 -16.6205 -2.19251 6.46944 -1.45247e-06 -179.069 7.0585 132.348 -39.0811 -0.00228153 -0.0401928 0.0423835 -0.262666 11.2806 -40.9854 7.72618e-06 5.99936e-06 -2.8764 -3.71707 -44.8892 -11.7543 -5.6619e-06 -5.58687e-06 0.0178071 -0.0203979 -16.7831 
0 0 0 0 0 -0 -0.423888 91.573 -19.9439 88.8158 -0.462543 -31.2909 15.7357 5.1072e-06 -5.51765e-07 87.9343 75.0071 -88.4991 8.98455 -0.406207 -4.3199e-07 22.1978 -1.12212 -0.914618 16.3773 -1.3905e-06 -6.99897e-07 18.0664 -5.07742 1.26515 6.45672 -1.25837e-06 -1.02172e-07 0.453904 -4.58879 1.54149 12.9942 -0.242716 4.98039 -90.6887 2.49854 -89.5857 5.34809 -7.22636e-06 -6.2814e-07 -70.4778 43.1741 -3.90047 24.3286 1.87007e-05 4.90208e-06 -13.6886 -1.15398 -85.273 22.2916 -9.88446e-07 4.63217e-06 14.8493 5.51555 -7.17373 12.9945 -0.242716 -4.98039 88.309 8.78572 -94.0607 -5.34813 -1.25947e-06 -3.79883e-06 -69.4342 38.052 5.58969 -24.3289 0.000322201 -8.65921e-06 7.64206 -0.622754 -94.6329 -22.2915 -0.000108084 -4.47941e-06 -5.23012 5.41262 -3.35253 -2.19248 -6.46944 -1.22534e-07 -176.47 -3.90415 -51.0853 39.0811 -6.73843e-06 -1.23785e-05 0.0457841 -0.201443 18.2912 40.9854 -6.48686e-06 -1.26872e-05 -1.96566 -2.10046 -48.1453 11.7543 -2.30145e-07 3.05095e-06 0.000902643 -0.00138464 -16.6023 -2.19251 6.46944 -1.45247e-06 -179.091 7.08071 132.388 -39.0811 -0.00228153 -0.0401928 0.0428958 -0.262241 11.3643 -40.9854 7.72618e-06 5.99936e-06 -2.88142 -3.63799 -44.9372 -11.7543 -5.6619e-06 -5.58687e-06 0.019943 -0.0222462 -16.7936 
0 0 0 0 0 -0 -0.456336 91.5762 -19.9674 88.8305 -0.490424 -31.1925 15.7357 5.1072e-06 -5.51765e-07 87.9617 75.0239 -88.5229 8.98455 -0.406207 -4.3199e-07 22.1647 -1.10645 -0.910559 16.3773 -1.3905e-06 -6.99897e-07 17.9833 -5.08108 1.2379 6.45672 -1.25837e-06 -1.02172e-07 0.31446 -4.60781 1.6337 12.9942 -0.242716 4.98039 -90.6993 2.53875 -89.5951 5.34809 -7.22636e-06 -6.2814e-07 -70.3996 43.1828 -3.92009 24.3286 1.87007e-05 4.90208e-06 -13.6484 -1.15 -85.2749 22.2916 -9.88446e-07 4.63217e-06 14.8425 5.51587 -7.18613 12.9945 -0.242716 -4.98039 88.2976 8.81565 -94.0251 -5.34813 -1.25947e-06 -3.79883e-06 -69.3507 38.103 5.54354 -24.3289 0.000322201 -8.65921e-06 7.70585 -0.627967 -94.6324 -22.2915 -0.000108084 -4.47941e-06 -5.24176 5.41119 -3.30512 -2.19248 -6.46944 -1.22534e-07 -176.49 -3.93527 -50.9917 39.0811 -6.73843e-06 -1.23785e-05 0.0459421 -0.200112 18.2794 40.9854 -6.48686e-06 -1.26872e-05 -1.92228 -2.06779 -48.1236 11.7543 -2.30145e-07 3.05095e-06 0.00172207 -0.0026554 -16.625 -2.19251 6.46944 -1.45247e-06 -179.044 7.11563 132.476 -39.0811 -0.00228153 -0.0401928 0.0399087 -0.261832 11.3545 -40.9854 7.72618e-06 5.99936e-06 -2.83148 -3.61694 -44.933 -11.7543 -5.6619e-06 -5.58687e-06 0.0252808 -0.0282597 -16.8527 
0 0 0 0 0 -0 -0.486854 91.5666 -19.9868 88.8168 -0.505045 -31.0516 15.7357 5.1072e-06 -5.51765e-07 87.9378 75.0244 -88.4901 8.98455 -0.406207 -4.3199e-07 22.1635 -1.11744 -0.890518 16.3773 -1.3905e-06 -6.99897e-07 17.892 -5.07787 1.20973 6.45672 -1.25837e-06 -1.02172e-07 0.0482221 -4.56249 1.68032 12.9942 -0.242716 4.98039 -90.7135 2.58061 -89.5402 5.34809 -7.22636e-06 -6.2814e-07 -70.3225 43.1945 -3.97031 24.3286 1.87007e-05 4.90208e-06 -13.7639 -1.16093 -85.2718 22.2916 -9.88446e-07 4.63217e-06 14.859 5.51486 -7.14403 12.9945 -0.242716 -4.98039 88.3081 8.78276 -94.0513 -5.34813 -1.25947e-06 -3.79883e-06 -69.3619 38.1489 5.48504 -24.3289 0.000322201 -8.65921e-06 7.58147 -0.613609 -94.602 -22.2915 -0.000108084 -4.47941e-06 -5.11394 5.40949 -3.24815 -2.19248 -6.46944 -1.22534e-07 -176.441 -3.94808 -50.8786 39.0811 -6.73843e-06 -1.23785e-05 0.0504514 -0.202978 18.3091 40.9854 -6.48686e-06 -1.26872e-05 -2.02305 -2.10085 -48.1233 11.7543 -2.30145e-07 3.05095e-06 0.00206107 -0.00316562 -16.6342 -2.19251 6.46944 -1.45247e-06 -179.05 7.08259 132.556 -39.0811 -0.00228153 -0.0401928 0.0394939 -0.258879 11.4546 -40.9854 7.72618e-06 5.99936e-06 -2.82268 -3.58813 -44.9893 -11.7543 -5.6619e-06 -5.58687e-06 0.0177909 -0.0198508 -16.7699 
